<mxfile host="Electron" agent="Mozilla/5.0 (Windows NT 10.0; Win64; x64) AppleWebKit/537.36 (KHTML, like Gecko) draw.io/26.2.2 Chrome/134.0.6998.178 Electron/35.1.2 Safari/537.36" version="26.2.2">
  <diagram name="Página-1" id="8uvx_EoGPA2XAXAzlfdE">
    <mxGraphModel dx="1556" dy="914" grid="1" gridSize="10" guides="1" tooltips="1" connect="1" arrows="1" fold="1" page="1" pageScale="1" pageWidth="827" pageHeight="1169" math="0" shadow="0">
      <root>
        <mxCell id="0" />
        <mxCell id="1" parent="0" />
        <mxCell id="b7Jrvc5tre1kZIAGIm_a-3" style="rounded=0;orthogonalLoop=1;jettySize=auto;html=1;endArrow=none;startFill=0;" edge="1" parent="1" source="b7Jrvc5tre1kZIAGIm_a-1" target="b7Jrvc5tre1kZIAGIm_a-2">
          <mxGeometry relative="1" as="geometry" />
        </mxCell>
        <mxCell id="b7Jrvc5tre1kZIAGIm_a-1" value="Orçamentos" style="rounded=0;whiteSpace=wrap;html=1;" vertex="1" parent="1">
          <mxGeometry x="300" y="265" width="120" height="60" as="geometry" />
        </mxCell>
        <mxCell id="b7Jrvc5tre1kZIAGIm_a-2" value="Nome" style="ellipse;whiteSpace=wrap;html=1;" vertex="1" parent="1">
          <mxGeometry x="200" y="160" width="120" height="50" as="geometry" />
        </mxCell>
        <mxCell id="b7Jrvc5tre1kZIAGIm_a-10" style="edgeStyle=none;shape=connector;rounded=0;orthogonalLoop=1;jettySize=auto;html=1;strokeColor=default;align=center;verticalAlign=middle;fontFamily=Helvetica;fontSize=11;fontColor=default;labelBackgroundColor=default;endArrow=none;startFill=0;" edge="1" parent="1" source="b7Jrvc5tre1kZIAGIm_a-5" target="b7Jrvc5tre1kZIAGIm_a-9">
          <mxGeometry relative="1" as="geometry" />
        </mxCell>
        <mxCell id="b7Jrvc5tre1kZIAGIm_a-5" value="Formado por" style="rhombus;whiteSpace=wrap;html=1;fontFamily=Helvetica;fontSize=11;fontColor=default;labelBackgroundColor=default;" vertex="1" parent="1">
          <mxGeometry x="480" y="267.5" width="120" height="55" as="geometry" />
        </mxCell>
        <mxCell id="b7Jrvc5tre1kZIAGIm_a-6" style="edgeStyle=none;shape=connector;rounded=0;orthogonalLoop=1;jettySize=auto;html=1;strokeColor=default;align=center;verticalAlign=middle;fontFamily=Helvetica;fontSize=11;fontColor=default;labelBackgroundColor=default;endArrow=none;startFill=0;" edge="1" parent="1" source="b7Jrvc5tre1kZIAGIm_a-1" target="b7Jrvc5tre1kZIAGIm_a-5">
          <mxGeometry relative="1" as="geometry" />
        </mxCell>
        <mxCell id="b7Jrvc5tre1kZIAGIm_a-19" style="edgeStyle=none;shape=connector;rounded=0;orthogonalLoop=1;jettySize=auto;html=1;strokeColor=default;align=center;verticalAlign=middle;fontFamily=Helvetica;fontSize=11;fontColor=default;labelBackgroundColor=default;startFill=0;endArrow=none;" edge="1" parent="1" source="b7Jrvc5tre1kZIAGIm_a-9" target="b7Jrvc5tre1kZIAGIm_a-18">
          <mxGeometry relative="1" as="geometry" />
        </mxCell>
        <mxCell id="b7Jrvc5tre1kZIAGIm_a-9" value="Contas" style="rounded=0;whiteSpace=wrap;html=1;" vertex="1" parent="1">
          <mxGeometry x="670" y="262.5" width="120" height="60" as="geometry" />
        </mxCell>
        <mxCell id="b7Jrvc5tre1kZIAGIm_a-14" style="edgeStyle=none;shape=connector;rounded=0;orthogonalLoop=1;jettySize=auto;html=1;strokeColor=default;align=center;verticalAlign=middle;fontFamily=Helvetica;fontSize=11;fontColor=default;labelBackgroundColor=default;endArrow=none;startFill=0;" edge="1" parent="1" source="b7Jrvc5tre1kZIAGIm_a-11" target="b7Jrvc5tre1kZIAGIm_a-9">
          <mxGeometry relative="1" as="geometry" />
        </mxCell>
        <mxCell id="b7Jrvc5tre1kZIAGIm_a-11" value="Nome" style="ellipse;whiteSpace=wrap;html=1;" vertex="1" parent="1">
          <mxGeometry x="530" y="140" width="120" height="50" as="geometry" />
        </mxCell>
        <mxCell id="b7Jrvc5tre1kZIAGIm_a-15" style="edgeStyle=none;shape=connector;rounded=0;orthogonalLoop=1;jettySize=auto;html=1;strokeColor=default;align=center;verticalAlign=middle;fontFamily=Helvetica;fontSize=11;fontColor=default;labelBackgroundColor=default;endArrow=none;startFill=0;" edge="1" parent="1" source="b7Jrvc5tre1kZIAGIm_a-12" target="b7Jrvc5tre1kZIAGIm_a-9">
          <mxGeometry relative="1" as="geometry" />
        </mxCell>
        <mxCell id="b7Jrvc5tre1kZIAGIm_a-12" value="Saldo" style="ellipse;whiteSpace=wrap;html=1;" vertex="1" parent="1">
          <mxGeometry x="680" y="100" width="120" height="50" as="geometry" />
        </mxCell>
        <mxCell id="b7Jrvc5tre1kZIAGIm_a-16" style="edgeStyle=none;shape=connector;rounded=0;orthogonalLoop=1;jettySize=auto;html=1;strokeColor=default;align=center;verticalAlign=middle;fontFamily=Helvetica;fontSize=11;fontColor=default;labelBackgroundColor=default;endArrow=none;startFill=0;" edge="1" parent="1" source="b7Jrvc5tre1kZIAGIm_a-13" target="b7Jrvc5tre1kZIAGIm_a-9">
          <mxGeometry relative="1" as="geometry" />
        </mxCell>
        <mxCell id="b7Jrvc5tre1kZIAGIm_a-13" value="Data do Saldo" style="ellipse;whiteSpace=wrap;html=1;" vertex="1" parent="1">
          <mxGeometry x="890" y="190" width="120" height="50" as="geometry" />
        </mxCell>
        <mxCell id="b7Jrvc5tre1kZIAGIm_a-18" value="Tipo da conta" style="ellipse;whiteSpace=wrap;html=1;" vertex="1" parent="1">
          <mxGeometry x="910" y="275" width="120" height="50" as="geometry" />
        </mxCell>
        <mxCell id="b7Jrvc5tre1kZIAGIm_a-24" style="edgeStyle=none;shape=connector;rounded=0;orthogonalLoop=1;jettySize=auto;html=1;strokeColor=default;align=center;verticalAlign=middle;fontFamily=Helvetica;fontSize=11;fontColor=default;labelBackgroundColor=default;startFill=0;endArrow=none;" edge="1" parent="1" source="b7Jrvc5tre1kZIAGIm_a-21" target="b7Jrvc5tre1kZIAGIm_a-23">
          <mxGeometry relative="1" as="geometry" />
        </mxCell>
        <mxCell id="b7Jrvc5tre1kZIAGIm_a-21" value="Contabilizam" style="rhombus;whiteSpace=wrap;html=1;fontFamily=Helvetica;fontSize=11;fontColor=default;labelBackgroundColor=default;" vertex="1" parent="1">
          <mxGeometry x="670" y="450" width="120" height="55" as="geometry" />
        </mxCell>
        <mxCell id="b7Jrvc5tre1kZIAGIm_a-22" style="edgeStyle=none;shape=connector;rounded=0;orthogonalLoop=1;jettySize=auto;html=1;strokeColor=default;align=center;verticalAlign=middle;fontFamily=Helvetica;fontSize=11;fontColor=default;labelBackgroundColor=default;startFill=0;endArrow=none;" edge="1" parent="1" source="b7Jrvc5tre1kZIAGIm_a-9" target="b7Jrvc5tre1kZIAGIm_a-21">
          <mxGeometry relative="1" as="geometry" />
        </mxCell>
        <mxCell id="b7Jrvc5tre1kZIAGIm_a-23" value="Lançamentos" style="rounded=0;whiteSpace=wrap;html=1;" vertex="1" parent="1">
          <mxGeometry x="510" y="600" width="120" height="60" as="geometry" />
        </mxCell>
        <mxCell id="b7Jrvc5tre1kZIAGIm_a-26" style="edgeStyle=none;shape=connector;rounded=0;orthogonalLoop=1;jettySize=auto;html=1;strokeColor=default;align=center;verticalAlign=middle;fontFamily=Helvetica;fontSize=11;fontColor=default;labelBackgroundColor=default;startFill=0;endArrow=none;" edge="1" parent="1" source="b7Jrvc5tre1kZIAGIm_a-25" target="b7Jrvc5tre1kZIAGIm_a-9">
          <mxGeometry relative="1" as="geometry" />
        </mxCell>
        <mxCell id="b7Jrvc5tre1kZIAGIm_a-25" value="Impacta orçamento" style="ellipse;whiteSpace=wrap;html=1;" vertex="1" parent="1">
          <mxGeometry x="910" y="370" width="120" height="50" as="geometry" />
        </mxCell>
        <mxCell id="b7Jrvc5tre1kZIAGIm_a-31" style="edgeStyle=none;shape=connector;rounded=0;orthogonalLoop=1;jettySize=auto;html=1;strokeColor=default;align=center;verticalAlign=middle;fontFamily=Helvetica;fontSize=11;fontColor=default;labelBackgroundColor=default;startFill=0;endArrow=none;" edge="1" parent="1" source="b7Jrvc5tre1kZIAGIm_a-27" target="b7Jrvc5tre1kZIAGIm_a-23">
          <mxGeometry relative="1" as="geometry" />
        </mxCell>
        <mxCell id="b7Jrvc5tre1kZIAGIm_a-27" value="Data" style="ellipse;whiteSpace=wrap;html=1;" vertex="1" parent="1">
          <mxGeometry x="380" y="360" width="120" height="50" as="geometry" />
        </mxCell>
        <mxCell id="b7Jrvc5tre1kZIAGIm_a-32" style="edgeStyle=none;shape=connector;rounded=0;orthogonalLoop=1;jettySize=auto;html=1;strokeColor=default;align=center;verticalAlign=middle;fontFamily=Helvetica;fontSize=11;fontColor=default;labelBackgroundColor=default;startFill=0;endArrow=none;" edge="1" parent="1" source="b7Jrvc5tre1kZIAGIm_a-28" target="b7Jrvc5tre1kZIAGIm_a-23">
          <mxGeometry relative="1" as="geometry" />
        </mxCell>
        <mxCell id="b7Jrvc5tre1kZIAGIm_a-28" value="Beneficiário" style="ellipse;whiteSpace=wrap;html=1;" vertex="1" parent="1">
          <mxGeometry x="260" y="430" width="120" height="50" as="geometry" />
        </mxCell>
        <mxCell id="b7Jrvc5tre1kZIAGIm_a-34" style="edgeStyle=none;shape=connector;rounded=0;orthogonalLoop=1;jettySize=auto;html=1;strokeColor=default;align=center;verticalAlign=middle;fontFamily=Helvetica;fontSize=11;fontColor=default;labelBackgroundColor=default;startFill=0;endArrow=none;" edge="1" parent="1" source="b7Jrvc5tre1kZIAGIm_a-30" target="b7Jrvc5tre1kZIAGIm_a-23">
          <mxGeometry relative="1" as="geometry" />
        </mxCell>
        <mxCell id="b7Jrvc5tre1kZIAGIm_a-30" value="Memo" style="ellipse;whiteSpace=wrap;html=1;" vertex="1" parent="1">
          <mxGeometry x="220" y="510" width="120" height="50" as="geometry" />
        </mxCell>
        <mxCell id="b7Jrvc5tre1kZIAGIm_a-36" style="edgeStyle=none;shape=connector;rounded=0;orthogonalLoop=1;jettySize=auto;html=1;strokeColor=default;align=center;verticalAlign=middle;fontFamily=Helvetica;fontSize=11;fontColor=default;labelBackgroundColor=default;startFill=0;endArrow=none;" edge="1" parent="1" source="b7Jrvc5tre1kZIAGIm_a-35" target="b7Jrvc5tre1kZIAGIm_a-23">
          <mxGeometry relative="1" as="geometry" />
        </mxCell>
        <mxCell id="b7Jrvc5tre1kZIAGIm_a-35" value="Valor" style="ellipse;whiteSpace=wrap;html=1;" vertex="1" parent="1">
          <mxGeometry x="730" y="570" width="120" height="50" as="geometry" />
        </mxCell>
        <mxCell id="b7Jrvc5tre1kZIAGIm_a-38" style="edgeStyle=none;shape=connector;rounded=0;orthogonalLoop=1;jettySize=auto;html=1;strokeColor=default;align=center;verticalAlign=middle;fontFamily=Helvetica;fontSize=11;fontColor=default;labelBackgroundColor=default;startFill=0;endArrow=none;" edge="1" parent="1" source="b7Jrvc5tre1kZIAGIm_a-37" target="b7Jrvc5tre1kZIAGIm_a-23">
          <mxGeometry relative="1" as="geometry" />
        </mxCell>
        <mxCell id="b7Jrvc5tre1kZIAGIm_a-37" value="Tipo" style="ellipse;whiteSpace=wrap;html=1;strokeWidth=1;perimeterSpacing=0;" vertex="1" parent="1">
          <mxGeometry x="210" y="610" width="120" height="50" as="geometry" />
        </mxCell>
        <mxCell id="b7Jrvc5tre1kZIAGIm_a-41" style="edgeStyle=none;shape=connector;rounded=0;orthogonalLoop=1;jettySize=auto;html=1;strokeColor=default;align=center;verticalAlign=middle;fontFamily=Helvetica;fontSize=11;fontColor=default;labelBackgroundColor=default;startFill=0;endArrow=none;" edge="1" parent="1" source="b7Jrvc5tre1kZIAGIm_a-40" target="b7Jrvc5tre1kZIAGIm_a-23">
          <mxGeometry relative="1" as="geometry" />
        </mxCell>
        <mxCell id="b7Jrvc5tre1kZIAGIm_a-40" value="Moeda" style="ellipse;whiteSpace=wrap;html=1;" vertex="1" parent="1">
          <mxGeometry x="540" y="810" width="120" height="50" as="geometry" />
        </mxCell>
        <mxCell id="b7Jrvc5tre1kZIAGIm_a-44" style="edgeStyle=none;shape=connector;rounded=0;orthogonalLoop=1;jettySize=auto;html=1;strokeColor=default;align=center;verticalAlign=middle;fontFamily=Helvetica;fontSize=11;fontColor=default;labelBackgroundColor=default;startFill=0;endArrow=none;" edge="1" parent="1" source="b7Jrvc5tre1kZIAGIm_a-43" target="b7Jrvc5tre1kZIAGIm_a-23">
          <mxGeometry relative="1" as="geometry" />
        </mxCell>
        <mxCell id="b7Jrvc5tre1kZIAGIm_a-43" value="Paridade" style="ellipse;whiteSpace=wrap;html=1;" vertex="1" parent="1">
          <mxGeometry x="660" y="760" width="120" height="50" as="geometry" />
        </mxCell>
        <mxCell id="b7Jrvc5tre1kZIAGIm_a-46" style="edgeStyle=none;shape=connector;rounded=0;orthogonalLoop=1;jettySize=auto;html=1;strokeColor=default;align=center;verticalAlign=middle;fontFamily=Helvetica;fontSize=11;fontColor=default;labelBackgroundColor=default;startFill=0;endArrow=none;" edge="1" parent="1" source="b7Jrvc5tre1kZIAGIm_a-45" target="b7Jrvc5tre1kZIAGIm_a-23">
          <mxGeometry relative="1" as="geometry" />
        </mxCell>
        <mxCell id="b7Jrvc5tre1kZIAGIm_a-45" value="Realizado" style="ellipse;whiteSpace=wrap;html=1;" vertex="1" parent="1">
          <mxGeometry x="720" y="670" width="120" height="50" as="geometry" />
        </mxCell>
        <mxCell id="b7Jrvc5tre1kZIAGIm_a-48" style="edgeStyle=none;shape=connector;rounded=0;orthogonalLoop=1;jettySize=auto;html=1;strokeColor=default;align=center;verticalAlign=middle;fontFamily=Helvetica;fontSize=11;fontColor=default;labelBackgroundColor=default;startFill=0;endArrow=none;" edge="1" parent="1" source="b7Jrvc5tre1kZIAGIm_a-47" target="b7Jrvc5tre1kZIAGIm_a-23">
          <mxGeometry relative="1" as="geometry" />
        </mxCell>
        <mxCell id="b7Jrvc5tre1kZIAGIm_a-47" value="Valor original" style="ellipse;whiteSpace=wrap;html=1;" vertex="1" parent="1">
          <mxGeometry x="380" y="790" width="120" height="50" as="geometry" />
        </mxCell>
        <mxCell id="b7Jrvc5tre1kZIAGIm_a-53" style="edgeStyle=none;shape=connector;rounded=0;orthogonalLoop=1;jettySize=auto;html=1;strokeColor=default;align=center;verticalAlign=middle;fontFamily=Helvetica;fontSize=11;fontColor=default;labelBackgroundColor=default;startFill=0;endArrow=none;" edge="1" parent="1" source="b7Jrvc5tre1kZIAGIm_a-52" target="b7Jrvc5tre1kZIAGIm_a-23">
          <mxGeometry relative="1" as="geometry" />
        </mxCell>
        <mxCell id="b7Jrvc5tre1kZIAGIm_a-52" value="Categoria" style="ellipse;whiteSpace=wrap;html=1;strokeWidth=1;perimeterSpacing=0;" vertex="1" parent="1">
          <mxGeometry x="220" y="710" width="120" height="50" as="geometry" />
        </mxCell>
      </root>
    </mxGraphModel>
  </diagram>
</mxfile>
